<svg xmlns="http://www.w3.org/2000/svg" xmlns:xlink="http://www.w3.org/1999/xlink" width="40" zoomAndPan="magnify" viewBox="0 0 30 30.000001" height="40" preserveAspectRatio="xMidYMid meet" version="1.0"><defs><g/><clipPath id="02089192a4"><path d="M 2.082031 5.804688 L 28.210938 5.804688 L 28.210938 27.871094 L 2.082031 27.871094 Z M 2.082031 5.804688 " clip-rule="nonzero"/></clipPath><clipPath id="72cae883af"><path d="M 1.28125 1.015625 L 28.773438 1.015625 L 28.773438 9.046875 L 1.28125 9.046875 Z M 1.28125 1.015625 " clip-rule="nonzero"/></clipPath><clipPath id="e0d0418567"><path d="M 15 1.015625 L 28.71875 9.035156 L 1.28125 9.035156 L 15 1.015625 " clip-rule="nonzero"/></clipPath><clipPath id="a67564cfc1"><path d="M 0.484375 0 L 29.515625 0 L 29.515625 29.03125 L 0.484375 29.03125 Z M 0.484375 0 " clip-rule="nonzero"/></clipPath></defs><g clip-path="url(#02089192a4)"><path fill="#ffffff" d="M 2.082031 5.804688 L 28.210938 5.804688 L 28.210938 27.851562 L 2.082031 27.851562 Z M 2.082031 5.804688 " fill-opacity="1" fill-rule="nonzero"/></g><g clip-path="url(#72cae883af)"><g clip-path="url(#e0d0418567)"><path fill="#ffffff" d="M 1.28125 1.015625 L 28.773438 1.015625 L 28.773438 9.046875 L 1.28125 9.046875 Z M 1.28125 1.015625 " fill-opacity="1" fill-rule="nonzero"/></g></g><g clip-path="url(#a67564cfc1)"><path fill="#000000" d="M 7.183594 15.863281 L 7.183594 27.933594 C 7.183594 28.542969 6.683594 29.03125 6.066406 29.03125 L 1.601562 29.03125 C 0.984375 29.03125 0.484375 28.542969 0.484375 27.933594 L 0.484375 5.988281 C 0.484375 5.535156 0.769531 5.125 1.199219 4.964844 C 1.199219 4.964844 10.914062 1.304688 13.800781 0.21875 C 14.574219 -0.0742188 15.425781 -0.0742188 16.199219 0.21875 C 19.085938 1.304688 28.800781 4.964844 28.800781 4.964844 C 29.375 5.179688 29.664062 5.816406 29.441406 6.378906 C 29.222656 6.945312 28.574219 7.230469 28 7.011719 C 28 7.011719 18.285156 3.355469 15.398438 2.265625 C 15.140625 2.171875 14.859375 2.171875 14.601562 2.265625 L 2.71875 6.742188 L 2.71875 26.835938 L 4.949219 26.835938 L 4.949219 10.378906 C 4.949219 9.773438 5.449219 9.28125 6.066406 9.28125 L 23.933594 9.28125 C 24.550781 9.28125 25.050781 9.773438 25.050781 10.378906 L 25.050781 26.835938 L 27.28125 26.835938 L 27.28125 10.378906 C 27.28125 9.773438 27.78125 9.28125 28.398438 9.28125 C 29.015625 9.28125 29.515625 9.773438 29.515625 10.378906 L 29.515625 27.933594 C 29.515625 28.542969 29.015625 29.03125 28.398438 29.03125 L 23.933594 29.03125 C 23.316406 29.03125 22.816406 28.542969 22.816406 27.933594 L 22.816406 15.863281 Z M 22.816406 13.667969 L 22.816406 11.476562 L 7.183594 11.476562 L 7.183594 13.667969 Z M 22.816406 13.667969 " fill-opacity="1" fill-rule="evenodd"/></g><path fill="#acd9b2" d="M 11.871094 26.855469 C 12.042969 26.855469 12.195312 26.78125 12.324219 26.628906 C 12.457031 26.476562 12.523438 26.292969 12.523438 26.066406 L 12.523438 22.921875 L 14.875 19.058594 C 14.90625 19.007812 14.929688 18.957031 14.949219 18.902344 L 14.972656 18.820312 C 14.992188 18.738281 15 18.660156 15 18.582031 C 15 18.351562 14.929688 18.160156 14.792969 18.007812 C 14.652344 17.859375 14.496094 17.78125 14.324219 17.78125 C 14.105469 17.78125 13.917969 17.910156 13.761719 18.167969 L 11.90625 21.28125 L 9.921875 18.144531 C 9.785156 17.9375 9.632812 17.820312 9.457031 17.789062 L 9.371094 17.78125 C 9.203125 17.78125 9.042969 17.855469 8.886719 18 C 8.726562 18.148438 8.648438 18.335938 8.648438 18.570312 C 8.648438 18.65625 8.664062 18.75 8.695312 18.851562 C 8.722656 18.957031 8.777344 19.0625 8.851562 19.175781 L 11.195312 22.742188 L 11.195312 26.066406 C 11.195312 26.253906 11.238281 26.414062 11.332031 26.550781 L 11.390625 26.628906 C 11.523438 26.78125 11.683594 26.855469 11.871094 26.855469 Z M 11.871094 26.855469 " fill-opacity="1" fill-rule="nonzero"/><path fill="#000000" d="M 18.195312 26.855469 C 18.75 26.855469 19.269531 26.75 19.746094 26.539062 C 20.226562 26.328125 20.613281 26.027344 20.910156 25.632812 C 21.203125 25.238281 21.351562 24.765625 21.351562 24.222656 C 21.351562 23.792969 21.289062 23.429688 21.167969 23.132812 C 21.042969 22.832031 20.859375 22.585938 20.613281 22.386719 C 20.367188 22.191406 20.058594 22.027344 19.6875 21.902344 C 19.3125 21.777344 18.882812 21.667969 18.390625 21.574219 C 18.011719 21.5 17.691406 21.414062 17.421875 21.316406 C 17.148438 21.21875 16.941406 21.089844 16.800781 20.925781 C 16.65625 20.761719 16.585938 20.554688 16.585938 20.300781 C 16.585938 20.09375 16.644531 19.90625 16.769531 19.746094 C 16.890625 19.589844 17.074219 19.460938 17.316406 19.371094 C 17.558594 19.277344 17.855469 19.230469 18.207031 19.230469 C 18.417969 19.230469 18.648438 19.265625 18.894531 19.339844 C 19.140625 19.410156 19.375 19.5 19.59375 19.601562 C 19.816406 19.707031 19.992188 19.820312 20.121094 19.9375 C 20.222656 20.011719 20.332031 20.050781 20.453125 20.050781 C 20.640625 20.050781 20.804688 19.976562 20.945312 19.824219 C 21.085938 19.671875 21.152344 19.503906 21.152344 19.320312 C 21.152344 19.066406 21.035156 18.84375 20.796875 18.652344 C 20.511719 18.398438 20.140625 18.191406 19.6875 18.027344 C 19.230469 17.863281 18.738281 17.78125 18.207031 17.78125 C 17.640625 17.78125 17.125 17.882812 16.660156 18.085938 C 16.191406 18.285156 15.820312 18.582031 15.546875 18.964844 C 15.273438 19.351562 15.136719 19.820312 15.136719 20.367188 C 15.136719 20.726562 15.191406 21.050781 15.308594 21.34375 C 15.421875 21.632812 15.589844 21.882812 15.816406 22.097656 C 16.042969 22.3125 16.324219 22.488281 16.660156 22.628906 C 16.992188 22.765625 17.382812 22.867188 17.824219 22.9375 C 18.292969 23.003906 18.675781 23.097656 18.980469 23.21875 C 19.28125 23.339844 19.507812 23.492188 19.65625 23.667969 C 19.804688 23.84375 19.875 24.058594 19.875 24.308594 C 19.875 24.519531 19.800781 24.707031 19.644531 24.871094 C 19.488281 25.035156 19.28125 25.164062 19.027344 25.261719 C 18.773438 25.359375 18.496094 25.40625 18.195312 25.40625 C 17.742188 25.40625 17.363281 25.339844 17.058594 25.203125 C 16.75 25.070312 16.441406 24.871094 16.128906 24.613281 C 16.007812 24.511719 15.867188 24.460938 15.710938 24.460938 C 15.507812 24.460938 15.335938 24.535156 15.203125 24.679688 C 15.066406 24.828125 15 25 15 25.191406 C 15 25.308594 15.027344 25.425781 15.085938 25.542969 C 15.144531 25.660156 15.226562 25.765625 15.332031 25.859375 C 15.75 26.230469 16.1875 26.488281 16.644531 26.632812 C 17.105469 26.78125 17.621094 26.855469 18.195312 26.855469 Z M 18.195312 26.855469 " fill-opacity="1" fill-rule="nonzero"/><g fill="#719676" fill-opacity="1"><g transform="translate(8.229586, 25.636607)"><g><path d="M 6.984375 -8.109375 C 6.984375 -7.992188 6.945312 -7.875 6.875 -7.75 L 4.21875 -3.984375 L 4.21875 -0.59375 C 4.21875 -0.425781 4.160156 -0.285156 4.046875 -0.171875 C 3.929688 -0.0546875 3.796875 0 3.640625 0 C 3.472656 0 3.332031 -0.0546875 3.21875 -0.171875 C 3.101562 -0.285156 3.046875 -0.425781 3.046875 -0.59375 L 3.046875 -4.09375 L 0.390625 -7.671875 C 0.273438 -7.816406 0.21875 -7.960938 0.21875 -8.109375 C 0.21875 -8.273438 0.285156 -8.414062 0.421875 -8.53125 C 0.554688 -8.644531 0.703125 -8.703125 0.859375 -8.703125 C 1.046875 -8.703125 1.207031 -8.613281 1.34375 -8.4375 L 3.671875 -5.21875 L 5.90625 -8.421875 C 6.039062 -8.609375 6.207031 -8.703125 6.40625 -8.703125 C 6.5625 -8.703125 6.695312 -8.644531 6.8125 -8.53125 C 6.925781 -8.414062 6.984375 -8.273438 6.984375 -8.109375 Z M 6.984375 -8.109375 "/></g></g></g></svg>